# xmcd CD database file
#
# Track frame offsets:
#	150
#	13965
#	26635
#	44927
#	57250
#	68132
#	83167
#	96095
#	112960
#	129785
#	147367
#	162985
#
# Disc length: 2415 seconds
#
# Revision: 1
# Processed by: cddbd v1.5.2PL0 Copyright (c) Steve Scherf et al.
# Submitted via: CDex 1.79
#
DISCID=a4096d0c
DTITLE=The Wrights - Down This Road
DYEAR=2005
DGENRE=Country
TTITLE0=Down This Road
TTITLE1=Hard Time
TTITLE2=Knew All Along
TTITLE3=On The Rocks
TTITLE4=Hole In My Pocket
TTITLE5=Butterflies
TTITLE6=You're In Georgia Now
TTITLE7=Roller Coaster
TTITLE8=Do You Love Me
TTITLE9=Leave A Light On (featuring Alan Jackson)
TTITLE10=Waiting On Something Good
TTITLE11=You Got The Thorns
EXTD=YEAR: 2005
EXTT0=
EXTT1=
EXTT2=
EXTT3=
EXTT4=
EXTT5=
EXTT6=
EXTT7=
EXTT8=
EXTT9=
EXTT10=
EXTT11=
PLAYORDER=
